Coordinates
version=1
nRows=16
nColumns=63
inDegrees=yes

Units are S.I. units (second, meters, Newtons, ...)
If the header above contains a line with 'inDegrees', this indicates whether rotational values are in degrees (yes) or radians (no).

endheader
time	pelvis_tilt	pelvis_list	pelvis_rotation	pelvis_tx	pelvis_ty	pelvis_tz	hip_flexion_r	hip_adduction_r	hip_rotation_r	knee_angle_r	knee_angle_r_beta	ankle_angle_r	subtalar_angle_r	mtp_angle_r	hip_flexion_l	hip_adduction_l	hip_rotation_l	knee_angle_l	knee_angle_l_beta	ankle_angle_l	subtalar_angle_l	mtp_angle_l	L5_S1_Flex_Ext	L5_S1_Lat_Bending	L5_S1_axial_rotation	L4_L5_Flex_Ext	L4_L5_Lat_Bending	L4_L5_axial_rotation	L3_L4_Flex_Ext	L3_L4_Lat_Bending	L3_L4_axial_rotation	L2_L3_Flex_Ext	L2_L3_Lat_Bending	L2_L3_axial_rotation	L1_L2_Flex_Ext	L1_L2_Lat_Bending	L1_L2_axial_rotation	L1_T12_Flex_Ext	L1_T12_Lat_Bending	L1_T12_axial_rotation	Abs_r3	Abs_r2	Abs_r1	Abs_t1	Abs_t2	neck_flexion	neck_bending	neck_rotation	arm_flex_r	arm_add_r	arm_rot_r	elbow_flex_r	pro_sup_r	wrist_flex_r	wrist_dev_r	arm_flex_l	arm_add_l	arm_rot_l	elbow_flex_l	pro_sup_l	wrist_flex_l	wrist_dev_l
2.108696	-4.202706	-0.001886	71.869859	0.210614	0.928779	0.567726	8.743034	2.551335	7.721387	15.778421	0.275385	39.606744	-7.147482	0.000000	3.720226	-1.043993	2.947137	5.822509	0.101622	39.583684	8.287629	0.000000	0.242618	0.067892	0.402151	0.450567	0.090296	0.427286	0.398598	0.165073	0.427286	0.277289	0.165073	0.351882	0.225295	0.138446	0.326748	0.138632	0.105165	0.301614	1.732999	0.768009	2.236645	0.000000	0.000000	25.918789	-1.902646	-13.995051	24.982474	-14.684906	-6.495457	78.070387	59.137056	-9.008087	-0.092953	31.324907	-5.040460	-4.142413	67.946889	72.915574	-9.687794	-5.691700
2.130435	-4.240602	-0.274545	71.503308	0.211323	0.928018	0.566709	9.300789	2.716598	8.260689	16.176160	0.282327	39.992530	-7.508418	0.000000	3.763294	-1.115534	2.983147	5.557301	0.096993	39.654985	8.008276	0.000000	0.274104	0.072993	0.508163	0.509039	0.097081	0.539923	0.450326	0.177476	0.539923	0.313274	0.177476	0.444642	0.254533	0.148848	0.412882	0.156623	0.113067	0.381122	1.957899	0.825715	2.826247	0.000000	0.000000	26.138096	-2.428985	-14.460284	26.010625	-12.292192	-3.000937	77.658957	63.178419	-9.700815	0.094110	31.600393	-3.052888	-0.099673	67.860829	75.528297	-11.024203	-4.118864
2.152174	-4.332881	-0.585010	71.081768	0.211982	0.927071	0.565856	9.895944	2.850901	8.868590	16.569764	0.289197	40.290479	-7.949905	0.000000	3.866047	-1.135196	3.187784	5.290330	0.092334	39.660831	7.442570	0.000000	0.310694	0.075627	0.622202	0.576990	0.100584	0.661089	0.510439	0.183880	0.661089	0.355092	0.183880	0.544427	0.288510	0.154219	0.505539	0.177531	0.117147	0.466651	2.219256	0.855511	3.460500	0.000000	0.000000	26.394993	-2.927614	-14.805462	27.439804	-9.925000	0.021988	76.799445	66.406540	-10.143183	-0.019258	32.423716	-0.938899	3.412815	67.317216	77.817854	-12.058697	-2.846333
2.173913	-4.465446	-0.912322	70.638630	0.212517	0.926027	0.565159	10.503201	2.931947	9.376270	16.961562	0.296035	40.550261	-8.256425	0.000000	4.012622	-1.106112	3.544168	5.039257	0.087952	39.605930	6.622535	0.000000	0.349698	0.076428	0.739051	0.649425	0.101649	0.785241	0.574519	0.185826	0.785241	0.399670	0.185826	0.646669	0.324730	0.155851	0.600479	0.199818	0.118387	0.554288	2.497859	0.864566	4.110379	0.000000	0.000000	26.678808	-3.424424	-15.130611	29.187924	-7.740984	2.564354	75.538676	68.637068	-10.322559	-0.533125	33.601207	1.118363	6.431824	66.460450	79.346991	-12.690711	-1.923657
2.195652	-4.619538	-1.236327	70.189195	0.212902	0.924980	0.564622	11.088650	2.962789	9.712607	17.337499	0.302596	40.780460	-8.335720	0.000000	4.181994	-1.038724	4.055124	4.818132	0.084092	39.485308	5.525200	0.000000	0.389402	0.077426	0.854572	0.723159	0.102976	0.907983	0.639749	0.188253	0.907983	0.445048	0.188253	0.747751	0.361599	0.157887	0.694340	0.222504	0.119932	0.640929	2.781462	0.875855	4.752876	0.000000	0.000000	26.967727	-3.880820	-15.373251	31.087394	-5.837005	4.566342	74.014325	70.172020	-10.294228	-1.295506	34.843105	2.926493	9.011672	65.524124	79.986656	-12.927166	-1.190793
2.217391	-4.781499	-1.542731	69.750593	0.213096	0.924011	0.564266	11.631509	2.950658	9.880105	17.690325	0.308754	40.977468	-8.177054	0.000000	4.367560	-0.944725	4.632432	4.652601	0.081203	39.314041	4.258178	0.000000	0.427269	0.078530	0.965352	0.793480	0.104445	1.025687	0.701960	0.190938	1.025687	0.488325	0.190938	0.844683	0.396762	0.160139	0.784349	0.244141	0.121643	0.724014	3.051937	0.888350	5.369000	0.000000	0.000000	27.245937	-4.313247	-15.679664	32.904216	-4.352090	6.077250	72.439930	70.597798	-10.199623	-2.113837	35.892448	4.292726	11.296130	64.726098	79.555114	-12.923615	-0.666108
2.239130	-4.931326	-1.826473	69.337224	0.213110	0.923180	0.564090	12.117021	2.909826	9.830436	18.009883	0.314332	41.151135	-7.743146	0.000000	4.567385	-0.848228	5.192762	4.562906	0.079638	39.112039	2.931948	0.000000	0.462069	0.082915	1.062217	0.858109	0.110277	1.128606	0.759134	0.201600	1.128606	0.528099	0.201600	0.929440	0.429077	0.169080	0.863051	0.264026	0.128435	0.796663	3.300514	0.937951	5.907733	0.000000	0.000000	27.500862	-4.647311	-15.809865	34.416435	-3.259054	6.964899	71.008081	70.873625	-10.024240	-2.621134	36.561871	5.141531	13.135732	64.205064	78.973195	-12.786263	-0.192445
2.260870	-5.063036	-2.080466	68.995067	0.212946	0.922538	0.564013	12.516417	2.842213	9.573219	18.267692	0.318831	41.302285	-7.100264	0.000000	4.758488	-0.749095	5.819622	4.512944	0.078766	38.863269	1.530959	0.000000	0.492792	0.089917	1.133865	0.915164	0.119589	1.204731	0.809608	0.218624	1.204731	0.563212	0.218624	0.992132	0.457606	0.183359	0.921265	0.281581	0.139281	0.850399	3.519963	1.017158	6.306216	0.000000	0.000000	27.714684	-4.874979	-15.774888	35.385258	-2.601628	7.249663	69.940700	70.954857	-9.911597	-2.580181	36.751128	5.466103	14.503252	64.012949	78.159176	-12.614475	0.131787
2.282609	-5.166509	-2.275396	68.721651	0.212635	0.922139	0.564053	12.800800	2.753290	9.152329	18.462173	0.322226	41.425212	-6.325694	0.000000	4.926058	-0.655670	6.206636	4.524887	0.078974	38.674004	0.465315	0.000000	0.512823	0.097399	1.184131	0.952364	0.129541	1.258139	0.842517	0.236817	1.258139	0.586105	0.236817	1.036115	0.476207	0.198617	0.962106	0.293027	0.150872	0.888098	3.663044	1.101801	6.585781	0.000000	0.000000	27.887318	-5.064434	-15.763534	35.668212	-2.401840	6.854920	69.292947	71.334838	-9.764455	-1.879232	36.519973	5.360163	15.277252	64.024321	77.859962	-12.505148	0.292779
2.304348	-5.249558	-2.424578	68.506105	0.212243	0.921955	0.564112	12.970557	2.642014	8.603915	18.573645	0.324171	41.509679	-5.466698	0.000000	5.049207	-0.560292	6.671958	4.530269	0.079068	38.430008	-0.690067	0.000000	0.524985	0.106237	1.206384	0.974950	0.141296	1.281783	0.862499	0.258305	1.281783	0.600006	0.258305	1.055586	0.487501	0.216639	0.980187	0.299977	0.164562	0.904788	3.749918	1.201778	6.709548	0.000000	0.000000	28.010186	-5.114651	-15.487830	35.231929	-2.682033	5.952278	69.077549	71.758869	-9.654919	-0.523147	35.863905	4.876698	15.367883	64.177341	78.193830	-12.549144	0.403265
2.326087	-5.317518	-2.533460	68.321451	0.211836	0.921951	0.564177	13.045741	2.509291	7.957862	18.622845	0.325030	41.568693	-4.539054	0.000000	5.125523	-0.462191	7.205495	4.514745	0.078797	38.137819	-1.940823	0.000000	0.529091	0.115268	1.202194	0.982576	0.153306	1.277331	0.869244	0.280262	1.277331	0.604699	0.280262	1.051919	0.491314	0.235054	0.976782	0.302323	0.178549	0.901645	3.779247	1.303930	6.686240	0.000000	0.000000	28.085738	-5.014737	-14.930196	34.173273	-3.431572	4.745012	69.154640	72.101558	-9.688945	1.379412	34.868967	4.035513	14.863625	64.340834	78.957977	-12.864134	0.567043
2.347826	-5.366468	-2.604618	68.160951	0.211463	0.922098	0.564256	13.045791	2.369516	7.264981	18.627274	0.325107	41.617498	-3.582969	0.000000	5.161527	-0.373826	7.785398	4.485444	0.078286	37.816951	-3.235704	0.000000	0.524535	0.124129	1.170767	0.974113	0.165092	1.243940	0.861758	0.301808	1.243940	0.599491	0.301808	1.024421	0.487083	0.253125	0.951248	0.299719	0.192277	0.878075	3.746698	1.404177	6.511456	0.000000	0.000000	28.110364	-4.758661	-14.101077	32.722238	-4.601088	3.448434	69.219803	72.347421	-9.877628	3.698747	33.632248	2.859701	13.840526	64.363094	80.056308	-13.356168	0.819425
2.369565	-5.412931	-2.663864	67.991642	0.211181	0.922338	0.564305	13.012672	2.229138	6.623953	18.584163	0.324355	41.656238	-2.661003	0.000000	5.174616	-0.292858	8.359720	4.423008	0.077196	37.482652	-4.509335	0.000000	0.515736	0.131662	1.120832	0.957773	0.175111	1.190884	0.847302	0.320124	1.190884	0.589434	0.320124	0.980728	0.478912	0.268486	0.910676	0.294691	0.203945	0.840624	3.683849	1.489392	6.233730	0.000000	0.000000	28.111683	-4.377565	-13.095106	31.137022	-6.068567	2.231851	68.947767	73.102284	-10.478560	6.291594	32.212805	1.414820	12.381431	64.198434	81.357013	-14.053916	1.317136
2.391304	-5.448294	-2.731335	67.792319	0.211015	0.922621	0.564305	12.979853	2.120001	6.125304	18.505972	0.322990	41.687929	-1.827468	0.000000	5.173622	-0.242845	8.967206	4.314938	0.075310	37.134591	-5.778347	0.000000	0.505402	0.140955	1.061883	0.938583	0.187471	1.128250	0.830325	0.342719	1.128250	0.577624	0.342719	0.929147	0.469317	0.287436	0.862780	0.288787	0.218340	0.796412	3.610038	1.594515	5.905874	0.000000	0.000000	28.091609	-3.846816	-11.813683	29.659807	-7.728556	1.200381	68.084253	74.481852	-11.444860	9.072176	30.694389	-0.232267	10.601432	63.773426	82.474425	-14.771654	2.038005
2.413043	-5.483403	-2.831390	67.524267	0.210981	0.922861	0.564206	13.001752	2.038953	5.728713	18.425714	0.321589	41.741869	-0.970838	0.000000	5.175013	-0.227512	9.510886	4.151816	0.072463	36.814375	-6.938210	0.000000	0.498331	0.152101	1.011560	0.925450	0.202295	1.074783	0.818708	0.369819	1.074783	0.569542	0.369819	0.885115	0.462750	0.310165	0.821893	0.284746	0.235605	0.758670	3.559527	1.720602	5.625996	0.000000	0.000000	28.071244	-3.310223	-10.489336	28.452056	-9.483369	0.551531	66.503005	76.241312	-12.756097	11.908525	29.196389	-1.951586	8.618858	63.027604	83.213259	-15.430722	3.002370
2.434783	-5.519789	-2.999683	67.201780	0.211041	0.922966	0.563974	13.130422	2.005781	5.446606	18.363464	0.320503	41.826229	-0.112359	0.000000	5.224410	-0.267677	9.966570	3.956385	0.069052	36.553410	-7.894277	0.000000	0.498775	0.167050	0.976770	0.926275	0.222177	1.037819	0.819437	0.406166	1.037819	0.570050	0.406166	0.854674	0.463162	0.340649	0.793626	0.285000	0.258761	0.732578	3.562699	1.889708	5.432504	0.000000	0.000000	28.060540	-2.803714	-9.156178	27.576970	-11.234375	0.297505	64.258581	78.177222	-14.308891	14.688012	27.858773	-3.605513	6.553636	61.918801	83.705767	-16.004552	4.197708
